<svg width="32" height="32" viewBox="0 0 32 32" fill="none" xmlns="http://www.w3.org/2000/svg">
<path d="M32 16.0969C32 20.0792 30.7093 23.5738 28.1279 26.5805C25.5465 29.5872 22.3411 31.3937 18.5118 32V20.7732H22.2555L22.9666 16.0969H18.5118V13.0456C18.5118 11.4022 19.3728 10.5805 21.0948 10.5805H23.0951V6.61973C21.89 6.40431 20.7063 6.2966 19.5441 6.2966C17.6967 6.2966 16.224 6.8367 15.126 7.91691C14.0311 9.00019 13.4836 10.5374 13.4836 12.5286V16.0969H9.41878V20.7732H13.4836V32C9.65429 31.3937 6.44894 29.5872 3.86753 26.5805C1.28918 23.5738 0 20.0792 0 16.0969C0 11.6407 1.55833 7.84305 4.67498 4.70398C7.7947 1.56799 11.5689 0 15.9977 0C20.4265 0 24.2007 1.56799 27.3204 4.70398C30.4401 7.84305 32 11.6407 32 16.0969Z" fill="#8B48A0"/>
</svg>
